<svg xmlns="http://www.w3.org/2000/svg" fill="none" width="420" height="128" viewBox="0 0 420 128"><g><path d="M64 12C34 12 14 30 14 57c0 18 8 31 22 39l-6 19c-1 3 2 5 5 3l23-15h6c30 0 50-18 50-46S94 12 64 12Z" fill="#DDF3E4"/><path d="M64 12C34 12 14 30 14 57c0 18 8 31 22 39l-6 19c-1 3 2 5 5 3l23-15h6c30 0 50-18 50-46S94 12 64 12Z" stroke="#27634B" stroke-width="4" stroke-linejoin="round"/><path d="M46 45v9m36-9v9" stroke="#27634B" stroke-width="8" stroke-linecap="round"/><path d="M46 70c5 8 11 12 18 12s13-4 18-12" stroke="#27634B" stroke-width="6" stroke-linecap="round"/>
</g><text x="150" y="88" fill="#27634B" font-family="Arial, sans-serif" font-size="78" font-weight="700" letter-spacing="-4">Buddy</text></svg>